<svg xmlns="http://www.w3.org/2000/svg" viewBox="0 0 1442 1173">
  <defs>
    <!-- Gradients -->
    <linearGradient id="bgGrad" x1="0%" y1="0%" x2="100%" y2="100%">
      <stop offset="0%" style="stop-color:#0f172a"/>
      <stop offset="50%" style="stop-color:#1e293b"/>
      <stop offset="100%" style="stop-color:#0f172a"/>
    </linearGradient>
    <linearGradient id="blueGrad" x1="0%" y1="0%" x2="100%" y2="100%">
      <stop offset="0%" style="stop-color:#3b82f6"/>
      <stop offset="100%" style="stop-color:#1d4ed8"/>
    </linearGradient>
    <linearGradient id="amberGrad" x1="0%" y1="0%" x2="100%" y2="100%">
      <stop offset="0%" style="stop-color:#f59e0b"/>
      <stop offset="100%" style="stop-color:#d97706"/>
    </linearGradient>
    <linearGradient id="greenGrad" x1="0%" y1="0%" x2="100%" y2="100%">
      <stop offset="0%" style="stop-color:#22c55e"/>
      <stop offset="100%" style="stop-color:#16a34a"/>
    </linearGradient>
    <linearGradient id="grayGrad" x1="0%" y1="0%" x2="100%" y2="100%">
      <stop offset="0%" style="stop-color:#64748b"/>
      <stop offset="100%" style="stop-color:#475569"/>
    </linearGradient>

    <!-- Shadow filter -->
    <filter id="shadow" x="-20%" y="-20%" width="140%" height="140%">
      <feDropShadow dx="2" dy="3" stdDeviation="3" flood-opacity="0.25"/>
    </filter>

    <!-- Glow filter -->
    <filter id="glow">
      <feGaussianBlur stdDeviation="2" result="coloredBlur"/>
      <feMerge>
        <feMergeNode in="coloredBlur"/>
        <feMergeNode in="SourceGraphic"/>
      </feMerge>
    </filter>

    <!-- Arrow markers -->
    <marker id="arrow" markerWidth="10" markerHeight="7" refX="9" refY="3.5" orient="auto">
      <polygon points="0 0, 10 3.5, 0 7" fill="#64748b"/>
    </marker>
    <marker id="arrowGreen" markerWidth="10" markerHeight="7" refX="9" refY="3.5" orient="auto">
      <polygon points="0 0, 10 3.5, 0 7" fill="#22c55e"/>
    </marker>
    <marker id="arrowAmber" markerWidth="10" markerHeight="7" refX="9" refY="3.5" orient="auto">
      <polygon points="0 0, 10 3.5, 0 7" fill="#f59e0b"/>
    </marker>
  </defs>

  <!-- Background -->
  <rect width="1442" height="1173" fill="url(#bgGrad)"/>
  <pattern id="grid" width="40" height="40" patternUnits="userSpaceOnUse">
    <path d="M 40 0 L 0 0 0 40" fill="none" stroke="#334155" stroke-width="0.3" opacity="0.3"/>
  </pattern>
  <rect width="1442" height="1173" fill="url(#grid)"/>

  <!-- Title -->
  <text x="721" y="40" text-anchor="middle" fill="#f8fafc" font-family="system-ui, -apple-system, sans-serif" font-size="32" font-weight="bold" filter="url(#glow)">GSD (GET SHIT DONE) WORKFLOW</text>
  <text x="721" y="65" text-anchor="middle" fill="#94a3b8" font-family="system-ui, sans-serif" font-size="14">Complete Flowchart | 18 Commands | AI-Assisted CLI for Structured Development</text>

  <!-- ═══════════════════════════════════════════════════════════════════════ -->
  <!-- LEFT SIDEBAR: File Structure + Legend -->
  <!-- ═══════════════════════════════════════════════════════════════════════ -->

  <!-- File Structure -->
  <rect x="20" y="90" width="280" height="420" rx="10" fill="#1e293b" stroke="#334155" stroke-width="1.5" filter="url(#shadow)"/>
  <text x="160" y="118" text-anchor="middle" fill="#f8fafc" font-family="system-ui, sans-serif" font-size="15" font-weight="bold">FILE STRUCTURE</text>

  <text x="35" y="148" fill="#fbbf24" font-family="monospace" font-size="13">.planning/</text>
  <text x="45" y="170" fill="#e2e8f0" font-family="monospace" font-size="11">├── PROJECT.md</text>
  <text x="45" y="190" fill="#e2e8f0" font-family="monospace" font-size="11">├── ROADMAP.md</text>
  <text x="45" y="210" fill="#e2e8f0" font-family="monospace" font-size="11">├── STATE.md</text>
  <text x="45" y="230" fill="#e2e8f0" font-family="monospace" font-size="11">├── ISSUES.md</text>
  <text x="45" y="250" fill="#e2e8f0" font-family="monospace" font-size="11">├── config.json</text>
  <text x="45" y="270" fill="#e2e8f0" font-family="monospace" font-size="11">├── MILESTONES.md</text>
  <text x="45" y="295" fill="#f59e0b" font-family="monospace" font-size="11">├── milestones/</text>
  <text x="60" y="313" fill="#94a3b8" font-family="monospace" font-size="10">└── v1.0-mvp.md</text>
  <text x="45" y="338" fill="#3b82f6" font-family="monospace" font-size="11">├── codebase/</text>
  <text x="60" y="356" fill="#94a3b8" font-family="monospace" font-size="10">├── STACK.md</text>
  <text x="60" y="374" fill="#94a3b8" font-family="monospace" font-size="10">└── ...</text>
  <text x="45" y="399" fill="#22c55e" font-family="monospace" font-size="11">└── phases/</text>
  <text x="60" y="419" fill="#e2e8f0" font-family="monospace" font-size="10">├── 01-foundation/</text>
  <text x="75" y="437" fill="#94a3b8" font-family="monospace" font-size="9">├── *-CONTEXT.md</text>
  <text x="75" y="453" fill="#94a3b8" font-family="monospace" font-size="9">├── *-RESEARCH.md</text>
  <text x="75" y="469" fill="#94a3b8" font-family="monospace" font-size="9">├── *-PLAN.md</text>
  <text x="75" y="485" fill="#94a3b8" font-family="monospace" font-size="9">└── *-SUMMARY.md</text>

  <!-- Legend -->
  <rect x="20" y="525" width="280" height="200" rx="10" fill="#1e293b" stroke="#334155" stroke-width="1.5" filter="url(#shadow)"/>
  <text x="160" y="553" text-anchor="middle" fill="#f8fafc" font-family="system-ui, sans-serif" font-size="15" font-weight="bold">LEGEND</text>

  <rect x="40" y="575" width="20" height="20" rx="4" fill="url(#blueGrad)"/>
  <text x="70" y="590" fill="#e2e8f0" font-family="system-ui, sans-serif" font-size="12">Project Setup</text>
  <rect x="160" y="575" width="20" height="20" rx="4" fill="url(#greenGrad)"/>
  <text x="190" y="590" fill="#e2e8f0" font-family="system-ui, sans-serif" font-size="12">Phase Work</text>

  <rect x="40" y="605" width="20" height="20" rx="4" fill="url(#amberGrad)"/>
  <text x="70" y="620" fill="#e2e8f0" font-family="system-ui, sans-serif" font-size="12">Milestone</text>
  <rect x="160" y="605" width="20" height="20" rx="4" fill="url(#grayGrad)"/>
  <text x="190" y="620" fill="#e2e8f0" font-family="system-ui, sans-serif" font-size="12">Utilities</text>

  <rect x="40" y="635" width="20" height="20" rx="4" fill="none" stroke="#64748b" stroke-dasharray="4,2"/>
  <text x="70" y="650" fill="#e2e8f0" font-family="system-ui, sans-serif" font-size="12">Optional</text>
  <polygon points="170,645 190,645 180,635" fill="#64748b"/>
  <text x="200" y="650" fill="#e2e8f0" font-family="system-ui, sans-serif" font-size="12">Decision</text>

  <path d="M 40 680 L 60 680" stroke="#22c55e" stroke-width="3" stroke-dasharray="6,3"/>
  <text x="70" y="685" fill="#e2e8f0" font-family="system-ui, sans-serif" font-size="12">Phase Loop</text>
  <path d="M 160 680 L 180 680" stroke="#f59e0b" stroke-width="3" stroke-dasharray="8,4"/>
  <text x="190" y="685" fill="#e2e8f0" font-family="system-ui, sans-serif" font-size="12">Milestone Loop</text>

  <ellipse cx="50" cy="710" rx="12" ry="10" fill="#0f172a" stroke="#64748b"/>
  <text x="70" y="715" fill="#e2e8f0" font-family="system-ui, sans-serif" font-size="12">Start/End</text>

  <!-- Utilities Box -->
  <rect x="20" y="740" width="280" height="250" rx="10" fill="#1e293b" stroke="#64748b" stroke-width="1.5" filter="url(#shadow)"/>
  <text x="160" y="768" text-anchor="middle" fill="#f8fafc" font-family="system-ui, sans-serif" font-size="15" font-weight="bold">UTILITIES (anytime)</text>

  <rect x="35" y="790" width="250" height="32" rx="5" fill="url(#grayGrad)" filter="url(#shadow)"/>
  <text x="160" y="811" text-anchor="middle" fill="#fff" font-family="monospace" font-size="12">/gsd:progress</text>
  <rect x="35" y="830" width="250" height="32" rx="5" fill="url(#grayGrad)" filter="url(#shadow)"/>
  <text x="160" y="851" text-anchor="middle" fill="#fff" font-family="monospace" font-size="12">/gsd:pause-work</text>
  <rect x="35" y="870" width="250" height="32" rx="5" fill="url(#grayGrad)" filter="url(#shadow)"/>
  <text x="160" y="891" text-anchor="middle" fill="#fff" font-family="monospace" font-size="12">/gsd:resume-work</text>
  <rect x="35" y="910" width="120" height="28" rx="5" fill="url(#grayGrad)" opacity="0.7"/>
  <text x="95" y="929" text-anchor="middle" fill="#fff" font-family="monospace" font-size="10">add-phase</text>
  <rect x="165" y="910" width="120" height="28" rx="5" fill="url(#grayGrad)" opacity="0.7"/>
  <text x="225" y="929" text-anchor="middle" fill="#fff" font-family="monospace" font-size="10">insert-phase</text>
  <rect x="35" y="945" width="120" height="28" rx="5" fill="url(#grayGrad)" opacity="0.7"/>
  <text x="95" y="964" text-anchor="middle" fill="#fff" font-family="monospace" font-size="10">consider-issues</text>
  <rect x="165" y="945" width="120" height="28" rx="5" fill="url(#grayGrad)" opacity="0.7"/>
  <text x="225" y="964" text-anchor="middle" fill="#fff" font-family="monospace" font-size="10">help</text>

  <!-- ═══════════════════════════════════════════════════════════════════════ -->
  <!-- MAIN FLOWCHART - Clean vertical layout -->
  <!-- ═══════════════════════════════════════════════════════════════════════ -->

  <rect x="320" y="90" width="1100" height="900" rx="10" fill="#1e293b" stroke="#334155" stroke-width="1.5" filter="url(#shadow)"/>
  <text x="870" y="118" text-anchor="middle" fill="#f8fafc" font-family="system-ui, sans-serif" font-size="16" font-weight="bold">COMPLETE WORKFLOW FLOWCHART</text>

  <!-- ─────────────────────────────────────────────────────────────────────── -->
  <!-- ROW 1: START + PROJECT SETUP -->
  <!-- ─────────────────────────────────────────────────────────────────────── -->

  <!-- Start -->
  <ellipse cx="420" cy="170" rx="45" ry="22" fill="#0f172a" stroke="#64748b" stroke-width="2"/>
  <text x="420" y="175" text-anchor="middle" fill="#e2e8f0" font-family="system-ui, sans-serif" font-size="13">START</text>

  <path d="M 465 170 L 510 170" stroke="#64748b" stroke-width="2" marker-end="url(#arrow)"/>

  <!-- Decision: Existing code? -->
  <polygon points="580,170 640,200 580,230 520,200" fill="#0f172a" stroke="#3b82f6" stroke-width="2"/>
  <text x="580" y="197" text-anchor="middle" fill="#93c5fd" font-family="system-ui, sans-serif" font-size="10">Existing</text>
  <text x="580" y="210" text-anchor="middle" fill="#93c5fd" font-family="system-ui, sans-serif" font-size="10">code?</text>

  <!-- Yes - down to map-codebase -->
  <path d="M 580 230 L 580 260" stroke="#64748b" stroke-width="2" marker-end="url(#arrow)"/>
  <text x="590" y="250" fill="#94a3b8" font-family="system-ui, sans-serif" font-size="10">Yes</text>

  <!-- map-codebase -->
  <rect x="515" y="270" width="130" height="45" rx="6" fill="url(#blueGrad)" opacity="0.5" stroke="#3b82f6"/>
  <text x="580" y="290" text-anchor="middle" fill="#fff" font-family="monospace" font-size="11">map-codebase</text>
  <text x="580" y="305" text-anchor="middle" fill="#dbeafe" font-family="system-ui, sans-serif" font-size="9">(optional)</text>

  <path d="M 645 292 L 700 292 L 700 200" stroke="#64748b" stroke-width="2" marker-end="url(#arrow)"/>

  <!-- No - right to new-project -->
  <path d="M 640 200 L 700 200" stroke="#64748b" stroke-width="2"/>
  <text x="670" y="192" fill="#94a3b8" font-family="system-ui, sans-serif" font-size="10">No</text>

  <!-- new-project -->
  <rect x="710" y="175" width="130" height="50" rx="8" fill="url(#blueGrad)" filter="url(#shadow)"/>
  <text x="775" y="195" text-anchor="middle" fill="#fff" font-family="monospace" font-size="12" font-weight="bold">new-project</text>
  <text x="775" y="213" text-anchor="middle" fill="#dbeafe" font-family="system-ui, sans-serif" font-size="10">PROJECT.md</text>

  <path d="M 840 200 L 880 200" stroke="#64748b" stroke-width="2" marker-end="url(#arrow)"/>

  <!-- create-roadmap -->
  <rect x="890" y="175" width="140" height="50" rx="8" fill="url(#blueGrad)" filter="url(#shadow)"/>
  <text x="960" y="195" text-anchor="middle" fill="#fff" font-family="monospace" font-size="11" font-weight="bold">create-roadmap</text>
  <text x="960" y="213" text-anchor="middle" fill="#dbeafe" font-family="system-ui, sans-serif" font-size="10">ROADMAP.md</text>

  <path d="M 960 225 L 960 270" stroke="#64748b" stroke-width="2" marker-end="url(#arrow)"/>

  <!-- ─────────────────────────────────────────────────────────────────────── -->
  <!-- MILESTONE LOOP -->
  <!-- ─────────────────────────────────────────────────────────────────────── -->

  <rect x="350" y="280" width="1050" height="580" rx="12" fill="none" stroke="#f59e0b" stroke-width="3" stroke-dasharray="10,5"/>
  <rect x="350" y="280" width="160" height="26" rx="6" fill="url(#amberGrad)"/>
  <text x="430" y="298" text-anchor="middle" fill="#fff" font-family="system-ui, sans-serif" font-size="12" font-weight="bold">MILESTONE LOOP</text>

  <!-- Milestone Entry Point -->
  <circle cx="960" cy="320" r="18" fill="#f59e0b" stroke="#fcd34d" stroke-width="2"/>
  <text x="960" y="326" text-anchor="middle" fill="#fff" font-family="system-ui, sans-serif" font-size="14" font-weight="bold">M</text>

  <path d="M 960 338 L 960 370" stroke="#64748b" stroke-width="2" marker-end="url(#arrow)"/>

  <!-- ─────────────────────────────────────────────────────────────────────── -->
  <!-- PHASE LOOP (inside milestone) -->
  <!-- ─────────────────────────────────────────────────────────────────────── -->

  <rect x="380" y="380" width="680" height="350" rx="10" fill="none" stroke="#22c55e" stroke-width="3" stroke-dasharray="6,3"/>
  <rect x="380" y="380" width="130" height="24" rx="6" fill="url(#greenGrad)"/>
  <text x="445" y="396" text-anchor="middle" fill="#fff" font-family="system-ui, sans-serif" font-size="11" font-weight="bold">PHASE LOOP</text>

  <!-- Phase Entry Point -->
  <circle cx="700" cy="430" r="16" fill="#22c55e" stroke="#86efac" stroke-width="2"/>
  <text x="700" y="435" text-anchor="middle" fill="#fff" font-family="system-ui, sans-serif" font-size="12" font-weight="bold">P</text>

  <path d="M 700 446 L 700 480" stroke="#64748b" stroke-width="2" marker-end="url(#arrow)"/>

  <!-- Decision: Need preparation? -->
  <polygon points="700,490 760,520 700,550 640,520" fill="#0f172a" stroke="#22c55e" stroke-width="2"/>
  <text x="700" y="517" text-anchor="middle" fill="#86efac" font-family="system-ui, sans-serif" font-size="10">Need</text>
  <text x="700" y="530" text-anchor="middle" fill="#86efac" font-family="system-ui, sans-serif" font-size="10">prep?</text>

  <!-- Yes - left to optional box -->
  <path d="M 640 520 L 570 520" stroke="#64748b" stroke-width="2" marker-end="url(#arrow)"/>
  <text x="605" y="512" fill="#94a3b8" font-family="system-ui, sans-serif" font-size="10">Yes</text>

  <!-- Optional preparation commands -->
  <rect x="400" y="470" width="160" height="120" rx="8" fill="#22c55e" opacity="0.1" stroke="#22c55e" stroke-dasharray="4,2"/>
  <text x="480" y="490" text-anchor="middle" fill="#86efac" font-family="system-ui, sans-serif" font-size="10" font-style="italic">Optional (any order)</text>
  <rect x="415" y="500" width="130" height="24" rx="4" fill="#22c55e" opacity="0.3"/>
  <text x="480" y="516" text-anchor="middle" fill="#e2e8f0" font-family="monospace" font-size="9">list-assumptions</text>
  <rect x="415" y="528" width="130" height="24" rx="4" fill="#22c55e" opacity="0.3"/>
  <text x="480" y="544" text-anchor="middle" fill="#e2e8f0" font-family="monospace" font-size="9">discuss-phase</text>
  <rect x="415" y="556" width="130" height="24" rx="4" fill="#22c55e" opacity="0.3"/>
  <text x="480" y="572" text-anchor="middle" fill="#e2e8f0" font-family="monospace" font-size="9">research-phase</text>

  <!-- From optional down and right to plan-phase -->
  <path d="M 480 590 L 480 620 L 700 620 L 700 590" stroke="#64748b" stroke-width="2" marker-end="url(#arrow)"/>

  <!-- No - down to plan-phase -->
  <path d="M 700 550 L 700 590" stroke="#64748b" stroke-width="2"/>
  <text x="712" y="575" fill="#94a3b8" font-family="system-ui, sans-serif" font-size="10">No</text>

  <!-- plan-phase -->
  <rect x="635" y="600" width="130" height="50" rx="8" fill="url(#greenGrad)" filter="url(#shadow)"/>
  <text x="700" y="620" text-anchor="middle" fill="#fff" font-family="monospace" font-size="12" font-weight="bold">plan-phase</text>
  <text x="700" y="638" text-anchor="middle" fill="#dcfce7" font-family="system-ui, sans-serif" font-size="10">PLAN.md</text>

  <path d="M 765 625 L 815 625" stroke="#64748b" stroke-width="2" marker-end="url(#arrow)"/>

  <!-- execute-plan -->
  <rect x="825" y="600" width="130" height="50" rx="8" fill="url(#greenGrad)" filter="url(#shadow)"/>
  <text x="890" y="620" text-anchor="middle" fill="#fff" font-family="monospace" font-size="12" font-weight="bold">execute-plan</text>
  <text x="890" y="638" text-anchor="middle" fill="#dcfce7" font-family="system-ui, sans-serif" font-size="10">SUMMARY.md</text>

  <path d="M 890 650 L 890 680" stroke="#64748b" stroke-width="2" marker-end="url(#arrow)"/>

  <!-- Decision: More phases? -->
  <polygon points="890,690 950,720 890,750 830,720" fill="#0f172a" stroke="#22c55e" stroke-width="2"/>
  <text x="890" y="717" text-anchor="middle" fill="#86efac" font-family="system-ui, sans-serif" font-size="10">More</text>
  <text x="890" y="730" text-anchor="middle" fill="#86efac" font-family="system-ui, sans-serif" font-size="10">phases?</text>

  <!-- Yes - loop back to Phase entry (left side, then up) -->
  <path d="M 830 720 L 420 720 L 420 445 L 684 445" stroke="#22c55e" stroke-width="3" fill="none" marker-end="url(#arrowGreen)"/>
  <text x="550" y="712" fill="#22c55e" font-family="system-ui, sans-serif" font-size="12" font-weight="bold">Yes → next phase</text>

  <!-- No - exit phase loop, go to milestone completion -->
  <path d="M 950 720 L 1000 720 L 1000 650" stroke="#64748b" stroke-width="2" marker-end="url(#arrow)"/>
  <text x="975" y="690" fill="#94a3b8" font-family="system-ui, sans-serif" font-size="10">No</text>

  <!-- ─────────────────────────────────────────────────────────────────────── -->
  <!-- MILESTONE COMPLETION (right side) -->
  <!-- ─────────────────────────────────────────────────────────────────────── -->

  <!-- complete-milestone -->
  <rect x="1100" y="500" width="150" height="50" rx="8" fill="url(#amberGrad)" filter="url(#shadow)"/>
  <text x="1175" y="520" text-anchor="middle" fill="#fff" font-family="monospace" font-size="11" font-weight="bold">complete-milestone</text>
  <text x="1175" y="538" text-anchor="middle" fill="#fef3c7" font-family="system-ui, sans-serif" font-size="10">Git tag vX.X</text>

  <!-- Arrow from phase loop exit to complete-milestone -->
  <path d="M 1000 640 L 1100 640 L 1100 550 L 1095 550" stroke="#64748b" stroke-width="2" marker-end="url(#arrow)"/>

  <path d="M 1175 550 L 1175 590" stroke="#64748b" stroke-width="2" marker-end="url(#arrow)"/>

  <!-- Decision: More milestones? -->
  <polygon points="1175,600 1235,630 1175,660 1115,630" fill="#0f172a" stroke="#f59e0b" stroke-width="2"/>
  <text x="1175" y="627" text-anchor="middle" fill="#fcd34d" font-family="system-ui, sans-serif" font-size="10">More</text>
  <text x="1175" y="640" text-anchor="middle" fill="#fcd34d" font-family="system-ui, sans-serif" font-size="10">work?</text>

  <!-- No - to END -->
  <path d="M 1235 630 L 1320 630" stroke="#64748b" stroke-width="2" marker-end="url(#arrow)"/>
  <text x="1278" y="622" fill="#94a3b8" font-family="system-ui, sans-serif" font-size="10">No</text>

  <!-- END -->
  <ellipse cx="1355" cy="630" rx="40" ry="22" fill="#0f172a" stroke="#64748b" stroke-width="2"/>
  <text x="1355" y="635" text-anchor="middle" fill="#e2e8f0" font-family="system-ui, sans-serif" font-size="13">END</text>

  <!-- Yes - down to discuss decision -->
  <path d="M 1175 660 L 1175 700" stroke="#64748b" stroke-width="2" marker-end="url(#arrow)"/>
  <text x="1187" y="685" fill="#94a3b8" font-family="system-ui, sans-serif" font-size="10">Yes</text>

  <!-- Decision: Discuss first? -->
  <polygon points="1175,710 1235,740 1175,770 1115,740" fill="#0f172a" stroke="#f59e0b" stroke-width="2"/>
  <text x="1175" y="737" text-anchor="middle" fill="#fcd34d" font-family="system-ui, sans-serif" font-size="9">Discuss</text>
  <text x="1175" y="750" text-anchor="middle" fill="#fcd34d" font-family="system-ui, sans-serif" font-size="9">first?</text>

  <!-- Yes - left to discuss-milestone -->
  <path d="M 1115 740 L 1050 740" stroke="#64748b" stroke-width="2" marker-end="url(#arrow)"/>
  <text x="1082" y="732" fill="#94a3b8" font-family="system-ui, sans-serif" font-size="10">Yes</text>

  <!-- discuss-milestone -->
  <rect x="920" y="715" width="125" height="50" rx="8" fill="url(#amberGrad)" opacity="0.5" stroke="#f59e0b"/>
  <text x="982" y="735" text-anchor="middle" fill="#fff" font-family="monospace" font-size="10">discuss-milestone</text>
  <text x="982" y="752" text-anchor="middle" fill="#fef3c7" font-family="system-ui, sans-serif" font-size="9">(optional)</text>

  <path d="M 982 765 L 982 810" stroke="#64748b" stroke-width="2" marker-end="url(#arrow)"/>

  <!-- No - down and left to new-milestone -->
  <path d="M 1175 770 L 1175 810 L 1045 810" stroke="#64748b" stroke-width="2" marker-end="url(#arrow)"/>
  <text x="1110" y="802" fill="#94a3b8" font-family="system-ui, sans-serif" font-size="10">No</text>

  <!-- new-milestone -->
  <rect x="920" y="790" width="120" height="50" rx="8" fill="url(#amberGrad)" filter="url(#shadow)"/>
  <text x="980" y="810" text-anchor="middle" fill="#fff" font-family="monospace" font-size="11" font-weight="bold">new-milestone</text>
  <text x="980" y="828" text-anchor="middle" fill="#fef3c7" font-family="system-ui, sans-serif" font-size="10">ROADMAP.md</text>

  <!-- Loop back to Milestone entry (M) - goes left, then up on the left edge -->
  <path d="M 920 815 L 380 815 L 380 335 L 942 335" stroke="#f59e0b" stroke-width="3" fill="none" marker-end="url(#arrowAmber)"/>
  <text x="600" y="830" fill="#f59e0b" font-family="system-ui, sans-serif" font-size="12" font-weight="bold">Start new milestone → back to M</text>

  <!-- Footer -->
  <text x="721" y="1020" text-anchor="middle" fill="#64748b" font-family="system-ui, sans-serif" font-size="14">GSD Workflow | Project → Milestone → Phase → Plan | 18 Commands</text>

  <!-- ─────────────────────────────────────────────────────────────────────── -->
  <!-- STATE TRACKING (bottom) -->
  <!-- ─────────────────────────────────────────────────────────────────────── -->

  <rect x="320" y="1040" width="1100" height="110" rx="10" fill="#1e293b" stroke="#334155" stroke-width="1.5" filter="url(#shadow)"/>
  <text x="450" y="1070" text-anchor="middle" fill="#f8fafc" font-family="system-ui, sans-serif" font-size="14" font-weight="bold">STATE TRACKING</text>

  <text x="340" y="1095" fill="#94a3b8" font-family="system-ui, sans-serif" font-size="12">Status:</text>
  <rect x="395" y="1080" width="90" height="22" rx="3" fill="#3b82f6" opacity="0.3"/>
  <text x="440" y="1095" text-anchor="middle" fill="#93c5fd" font-family="monospace" font-size="10">Ready to plan</text>
  <rect x="495" y="1080" width="70" height="22" rx="3" fill="#f59e0b" opacity="0.3"/>
  <text x="530" y="1095" text-anchor="middle" fill="#fcd34d" font-family="monospace" font-size="10">Planning</text>
  <rect x="575" y="1080" width="95" height="22" rx="3" fill="#22c55e" opacity="0.3"/>
  <text x="622" y="1095" text-anchor="middle" fill="#86efac" font-family="monospace" font-size="10">Ready to execute</text>
  <rect x="680" y="1080" width="75" height="22" rx="3" fill="#06b6d4" opacity="0.3"/>
  <text x="717" y="1095" text-anchor="middle" fill="#67e8f9" font-family="monospace" font-size="10">In progress</text>
  <rect x="765" y="1080" width="90" height="22" rx="3" fill="#22c55e" opacity="0.5"/>
  <text x="810" y="1095" text-anchor="middle" fill="#86efac" font-family="monospace" font-size="10">Phase complete</text>

  <text x="340" y="1130" fill="#94a3b8" font-family="system-ui, sans-serif" font-size="12">Position: Phase X of Y, Plan A of B</text>
  <text x="620" y="1130" fill="#64748b" font-family="monospace" font-size="12">[===========>        ] 58%</text>

  <text x="920" y="1095" fill="#94a3b8" font-family="system-ui, sans-serif" font-size="12">Tracks: Decisions, Blockers, Context</text>
  <text x="920" y="1130" fill="#94a3b8" font-family="system-ui, sans-serif" font-size="12">Resume file: .continue-here.md</text>
</svg>