<svg xmlns="http://www.w3.org/2000/svg" viewBox="0 0 1442 1173">
  <defs>
    <!-- Gradients -->
    <linearGradient id="bgGrad" x1="0%" y1="0%" x2="100%" y2="100%">
      <stop offset="0%" style="stop-color:#1a1f2e"/>
      <stop offset="100%" style="stop-color:#0d1117"/>
    </linearGradient>
    <linearGradient id="blueGrad" x1="0%" y1="0%" x2="0%" y2="100%">
      <stop offset="0%" style="stop-color:#3b82f6"/>
      <stop offset="100%" style="stop-color:#1d4ed8"/>
    </linearGradient>
    <linearGradient id="greenGrad" x1="0%" y1="0%" x2="0%" y2="100%">
      <stop offset="0%" style="stop-color:#22c55e"/>
      <stop offset="100%" style="stop-color:#15803d"/>
    </linearGradient>
    <linearGradient id="amberGrad" x1="0%" y1="0%" x2="0%" y2="100%">
      <stop offset="0%" style="stop-color:#f59e0b"/>
      <stop offset="100%" style="stop-color:#d97706"/>
    </linearGradient>
    <linearGradient id="grayGrad" x1="0%" y1="0%" x2="0%" y2="100%">
      <stop offset="0%" style="stop-color:#6b7280"/>
      <stop offset="100%" style="stop-color:#4b5563"/>
    </linearGradient>
    <linearGradient id="cyanGrad" x1="0%" y1="0%" x2="0%" y2="100%">
      <stop offset="0%" style="stop-color:#06b6d4"/>
      <stop offset="100%" style="stop-color:#0891b2"/>
    </linearGradient>
    <linearGradient id="cardGrad" x1="0%" y1="0%" x2="0%" y2="100%">
      <stop offset="0%" style="stop-color:#252d3d"/>
      <stop offset="100%" style="stop-color:#1e2533"/>
    </linearGradient>
    <linearGradient id="headerGrad" x1="0%" y1="0%" x2="100%" y2="0%">
      <stop offset="0%" style="stop-color:#3b82f6"/>
      <stop offset="50%" style="stop-color:#8b5cf6"/>
      <stop offset="100%" style="stop-color:#f59e0b"/>
    </linearGradient>

    <!-- Filters -->
    <filter id="shadow" x="-20%" y="-20%" width="140%" height="140%">
      <feDropShadow dx="0" dy="3" stdDeviation="4" flood-color="#000" flood-opacity="0.4"/>
    </filter>
    <filter id="softShadow" x="-20%" y="-20%" width="140%" height="140%">
      <feDropShadow dx="0" dy="2" stdDeviation="3" flood-color="#000" flood-opacity="0.3"/>
    </filter>
    <filter id="glow" x="-50%" y="-50%" width="200%" height="200%">
      <feGaussianBlur stdDeviation="3" result="coloredBlur"/>
      <feMerge>
        <feMergeNode in="coloredBlur"/>
        <feMergeNode in="SourceGraphic"/>
      </feMerge>
    </filter>
    <filter id="subtleGlow" x="-30%" y="-30%" width="160%" height="160%">
      <feGaussianBlur stdDeviation="2" result="coloredBlur"/>
      <feMerge>
        <feMergeNode in="coloredBlur"/>
        <feMergeNode in="SourceGraphic"/>
      </feMerge>
    </filter>

    <!-- Arrow Markers -->
    <marker id="arrowBlue" markerWidth="10" markerHeight="10" refX="9" refY="3" orient="auto">
      <path d="M0,0 L0,6 L9,3 z" fill="#3b82f6"/>
    </marker>
    <marker id="arrowGreen" markerWidth="10" markerHeight="10" refX="9" refY="3" orient="auto">
      <path d="M0,0 L0,6 L9,3 z" fill="#22c55e"/>
    </marker>
    <marker id="arrowAmber" markerWidth="10" markerHeight="10" refX="9" refY="3" orient="auto">
      <path d="M0,0 L0,6 L9,3 z" fill="#f59e0b"/>
    </marker>
    <marker id="arrowGray" markerWidth="10" markerHeight="10" refX="9" refY="3" orient="auto">
      <path d="M0,0 L0,6 L9,3 z" fill="#9ca3af"/>
    </marker>
    <marker id="arrowWhite" markerWidth="10" markerHeight="10" refX="9" refY="3" orient="auto">
      <path d="M0,0 L0,6 L9,3 z" fill="#e5e7eb"/>
    </marker>
  </defs>

  <!-- Background -->
  <rect width="1442" height="1173" fill="url(#bgGrad)"/>

  <!-- Subtle grid pattern -->
  <pattern id="grid" width="40" height="40" patternUnits="userSpaceOnUse">
    <path d="M 40 0 L 0 0 0 40" fill="none" stroke="#ffffff" stroke-width="0.3" opacity="0.03"/>
  </pattern>
  <rect width="1442" height="1173" fill="url(#grid)"/>

  <!-- Header -->
  <text x="721" y="42" font-family="Arial, sans-serif" font-size="28" font-weight="bold" fill="url(#headerGrad)" text-anchor="middle" filter="url(#subtleGlow)">GSD (GET SHIT DONE) WORKFLOW</text>
  <text x="721" y="62" font-family="Arial, sans-serif" font-size="12" fill="#9ca3af" text-anchor="middle">Complete Flowchart • 18 Commands • All Decision Paths for Software Development</text>

  <!-- ==================== LEFT SIDEBAR ==================== -->

  <!-- File Structure Card -->
  <g filter="url(#softShadow)">
    <rect x="20" y="85" width="200" height="295" rx="10" fill="url(#cardGrad)" stroke="#374151" stroke-width="1"/>
    <text x="120" y="110" font-family="Arial, sans-serif" font-size="14" font-weight="bold" fill="#e5e7eb" text-anchor="middle">FILE STRUCTURE</text>
    <line x1="35" y1="120" x2="205" y2="120" stroke="#374151" stroke-width="1"/>

    <text x="35" y="142" font-family="monospace" font-size="11" fill="#9ca3af">.planning/</text>
    <text x="50" y="160" font-family="monospace" font-size="11" fill="#60a5fa">├── PROJECT.md</text>
    <text x="50" y="178" font-family="monospace" font-size="11" fill="#60a5fa">├── ROADMAP.md</text>
    <text x="50" y="196" font-family="monospace" font-size="11" fill="#9ca3af">├── codebase/</text>
    <text x="65" y="214" font-family="monospace" font-size="10" fill="#6b7280">└── *.md docs</text>
    <text x="50" y="232" font-family="monospace" font-size="11" fill="#9ca3af">├── milestones/</text>
    <text x="65" y="250" font-family="monospace" font-size="10" fill="#f59e0b">├── v1.0/</text>
    <text x="80" y="268" font-family="monospace" font-size="10" fill="#6b7280">├── MILESTONE.md</text>
    <text x="65" y="286" font-family="monospace" font-size="10" fill="#f59e0b">└── v2.0/</text>
    <text x="50" y="304" font-family="monospace" font-size="11" fill="#9ca3af">└── phases/</text>
    <text x="65" y="322" font-family="monospace" font-size="10" fill="#22c55e">├── 01-setup/</text>
    <text x="80" y="340" font-family="monospace" font-size="10" fill="#6b7280">├── PLAN.md</text>
    <text x="80" y="358" font-family="monospace" font-size="10" fill="#6b7280">└── RESEARCH.md</text>
  </g>

  <!-- Legend Card -->
  <g filter="url(#softShadow)">
    <rect x="20" y="395" width="200" height="195" rx="10" fill="url(#cardGrad)" stroke="#374151" stroke-width="1"/>
    <text x="120" y="420" font-family="Arial, sans-serif" font-size="14" font-weight="bold" fill="#e5e7eb" text-anchor="middle">LEGEND</text>
    <line x1="35" y1="430" x2="205" y2="430" stroke="#374151" stroke-width="1"/>

    <!-- Legend items -->
    <rect x="35" y="445" width="16" height="16" rx="3" fill="url(#blueGrad)"/>
    <text x="58" y="457" font-family="Arial, sans-serif" font-size="12" fill="#e5e7eb">Project Setup</text>

    <rect x="35" y="470" width="16" height="16" rx="3" fill="url(#amberGrad)"/>
    <text x="58" y="482" font-family="Arial, sans-serif" font-size="12" fill="#e5e7eb">Milestone Work</text>

    <rect x="35" y="495" width="16" height="16" rx="3" fill="url(#greenGrad)"/>
    <text x="58" y="507" font-family="Arial, sans-serif" font-size="12" fill="#e5e7eb">Phase Work</text>

    <rect x="35" y="520" width="16" height="16" rx="3" fill="url(#grayGrad)"/>
    <text x="58" y="532" font-family="Arial, sans-serif" font-size="12" fill="#e5e7eb">Utilities</text>

    <rect x="35" y="545" width="16" height="16" rx="3" fill="url(#cyanGrad)"/>
    <text x="58" y="557" font-family="Arial, sans-serif" font-size="12" fill="#e5e7eb">In Progress</text>
  </g>

  <!-- Utilities Card -->
  <g filter="url(#softShadow)">
    <rect x="20" y="605" width="200" height="240" rx="10" fill="url(#cardGrad)" stroke="#374151" stroke-width="1"/>
    <text x="120" y="630" font-family="Arial, sans-serif" font-size="14" font-weight="bold" fill="#e5e7eb" text-anchor="middle">UTILITIES (Anytime)</text>
    <line x1="35" y1="640" x2="205" y2="640" stroke="#374151" stroke-width="1"/>

    <rect x="35" y="655" width="170" height="32" rx="5" fill="url(#grayGrad)" filter="url(#softShadow)"/>
    <text x="120" y="675" font-family="Arial, sans-serif" font-size="12" font-weight="bold" fill="#fff" text-anchor="middle">progress</text>
    <text x="120" y="700" font-family="Arial, sans-serif" font-size="10" fill="#9ca3af" text-anchor="middle">Check status &amp; next action</text>

    <rect x="35" y="715" width="170" height="32" rx="5" fill="url(#grayGrad)" filter="url(#softShadow)"/>
    <text x="120" y="735" font-family="Arial, sans-serif" font-size="12" font-weight="bold" fill="#fff" text-anchor="middle">pause-work</text>
    <text x="120" y="760" font-family="Arial, sans-serif" font-size="10" fill="#9ca3af" text-anchor="middle">Save context for later</text>

    <rect x="35" y="775" width="170" height="32" rx="5" fill="url(#grayGrad)" filter="url(#softShadow)"/>
    <text x="120" y="795" font-family="Arial, sans-serif" font-size="12" font-weight="bold" fill="#fff" text-anchor="middle">resume-work</text>
    <text x="120" y="820" font-family="Arial, sans-serif" font-size="10" fill="#9ca3af" text-anchor="middle">Restore saved context</text>
  </g>

  <!-- ==================== MAIN FLOWCHART ==================== -->

  <text x="820" y="90" font-family="Arial, sans-serif" font-size="16" font-weight="bold" fill="#e5e7eb" text-anchor="middle">COMPLETE WORKFLOW FLOWCHART</text>

  <!-- Start Node -->
  <g filter="url(#shadow)">
    <ellipse cx="400" cy="130" rx="55" ry="22" fill="#1f2937" stroke="#4b5563" stroke-width="2"/>
    <text x="400" y="135" font-family="Arial, sans-serif" font-size="14" font-weight="bold" fill="#e5e7eb" text-anchor="middle">START</text>
  </g>

  <!-- Arrow: Start to new-project -->
  <path d="M455,130 L505,130" stroke="#3b82f6" stroke-width="2" fill="none" marker-end="url(#arrowBlue)"/>

  <!-- new-project -->
  <g filter="url(#shadow)">
    <rect x="515" y="110" width="130" height="40" rx="6" fill="url(#blueGrad)"/>
    <text x="580" y="135" font-family="Arial, sans-serif" font-size="13" font-weight="bold" fill="#fff" text-anchor="middle">new-project</text>
  </g>

  <!-- Arrow: new-project to map-codebase decision -->
  <path d="M645,130 L695,130" stroke="#3b82f6" stroke-width="2" fill="none" marker-end="url(#arrowBlue)"/>

  <!-- map-codebase decision diamond -->
  <g filter="url(#shadow)">
    <polygon points="765,130 835,95 905,130 835,165" fill="#1f2937" stroke="#3b82f6" stroke-width="2"/>
    <text x="835" y="126" font-family="Arial, sans-serif" font-size="11" fill="#e5e7eb" text-anchor="middle">Existing</text>
    <text x="835" y="140" font-family="Arial, sans-serif" font-size="11" fill="#e5e7eb" text-anchor="middle">codebase?</text>
  </g>

  <!-- Yes path: to map-codebase -->
  <path d="M835,95 L835,65 L1010,65 L1010,110" stroke="#3b82f6" stroke-width="2" fill="none" marker-end="url(#arrowBlue)"/>
  <text x="870" y="58" font-family="Arial, sans-serif" font-size="11" fill="#22c55e">Yes</text>

  <!-- map-codebase box -->
  <g filter="url(#shadow)">
    <rect x="945" y="110" width="130" height="40" rx="6" fill="url(#blueGrad)"/>
    <text x="1010" y="135" font-family="Arial, sans-serif" font-size="13" font-weight="bold" fill="#fff" text-anchor="middle">map-codebase</text>
  </g>

  <!-- Arrow: map-codebase down to create-roadmap -->
  <path d="M1010,150 L1010,190 L745,190" stroke="#3b82f6" stroke-width="2" fill="none" marker-end="url(#arrowBlue)"/>

  <!-- No path: directly to create-roadmap -->
  <path d="M905,130 L950,130 L950,180 L745,180" stroke="#3b82f6" stroke-width="2" fill="none" marker-end="url(#arrowBlue)"/>
  <text x="920" y="123" font-family="Arial, sans-serif" font-size="11" fill="#ef4444">No</text>

  <!-- create-roadmap -->
  <g filter="url(#shadow)">
    <rect x="615" y="165" width="130" height="40" rx="6" fill="url(#blueGrad)"/>
    <text x="680" y="190" font-family="Arial, sans-serif" font-size="13" font-weight="bold" fill="#fff" text-anchor="middle">create-roadmap</text>
  </g>

  <!-- Arrow: create-roadmap to M entry point -->
  <path d="M680,205 L680,235" stroke="#f59e0b" stroke-width="2" fill="none" marker-end="url(#arrowAmber)"/>

  <!-- ==================== MILESTONE LOOP (Amber) ==================== -->
  <rect x="245" y="250" width="970" height="570" rx="15" fill="none" stroke="#f59e0b" stroke-width="3" stroke-dasharray="12,6" opacity="0.7"/>
  <text x="260" y="275" font-family="Arial, sans-serif" font-size="13" font-weight="bold" fill="#f59e0b">MILESTONE LOOP</text>

  <!-- M Entry Circle -->
  <g filter="url(#glow)">
    <circle cx="680" cy="270" r="18" fill="#f59e0b" stroke="#fbbf24" stroke-width="2"/>
    <text x="680" y="276" font-family="Arial, sans-serif" font-size="16" font-weight="bold" fill="#1f2937" text-anchor="middle">M</text>
  </g>

  <!-- Arrow: M to new-milestone decision -->
  <path d="M680,288 L680,310" stroke="#f59e0b" stroke-width="2" fill="none" marker-end="url(#arrowAmber)"/>

  <!-- new-milestone decision diamond -->
  <g filter="url(#shadow)">
    <polygon points="680,320 750,355 680,390 610,355" fill="#1f2937" stroke="#f59e0b" stroke-width="2"/>
    <text x="680" y="351" font-family="Arial, sans-serif" font-size="11" fill="#e5e7eb" text-anchor="middle">Need new</text>
    <text x="680" y="365" font-family="Arial, sans-serif" font-size="11" fill="#e5e7eb" text-anchor="middle">milestone?</text>
  </g>

  <!-- Yes path: new-milestone box -->
  <path d="M610,355 L530,355" stroke="#f59e0b" stroke-width="2" fill="none" marker-end="url(#arrowAmber)"/>
  <text x="590" y="348" font-family="Arial, sans-serif" font-size="11" fill="#22c55e">Yes</text>

  <g filter="url(#shadow)">
    <rect x="390" y="335" width="140" height="40" rx="6" fill="url(#amberGrad)"/>
    <text x="460" y="360" font-family="Arial, sans-serif" font-size="13" font-weight="bold" fill="#fff" text-anchor="middle">new-milestone</text>
  </g>

  <!-- Arrow: new-milestone to discuss-milestone -->
  <path d="M460,375 L460,410" stroke="#f59e0b" stroke-width="2" fill="none" marker-end="url(#arrowAmber)"/>

  <!-- No path from new-milestone decision -->
  <path d="M680,390 L680,435" stroke="#f59e0b" stroke-width="2" fill="none" marker-end="url(#arrowAmber)"/>
  <text x="688" y="408" font-family="Arial, sans-serif" font-size="11" fill="#ef4444">No</text>

  <!-- discuss-milestone -->
  <g filter="url(#shadow)">
    <rect x="390" y="410" width="140" height="40" rx="6" fill="url(#amberGrad)"/>
    <text x="460" y="435" font-family="Arial, sans-serif" font-size="13" font-weight="bold" fill="#fff" text-anchor="middle">discuss-milestone</text>
  </g>

  <!-- Arrow: discuss-milestone to join point with No path -->
  <path d="M530,430 L660,430 L660,445 L660,465" stroke="#f59e0b" stroke-width="2" fill="none"/>

  <!-- Join point -->
  <circle cx="680" cy="445" r="4" fill="#f59e0b"/>
  <path d="M680,445 L680,465" stroke="#f59e0b" stroke-width="2" fill="none" marker-end="url(#arrowAmber)"/>

  <!-- add-phase decision -->
  <g filter="url(#shadow)">
    <polygon points="680,475 755,515 680,555 605,515" fill="#1f2937" stroke="#f59e0b" stroke-width="2"/>
    <text x="680" y="511" font-family="Arial, sans-serif" font-size="11" fill="#e5e7eb" text-anchor="middle">Add</text>
    <text x="680" y="525" font-family="Arial, sans-serif" font-size="11" fill="#e5e7eb" text-anchor="middle">phase?</text>
  </g>

  <!-- Yes: add-phase box -->
  <path d="M605,515 L540,515" stroke="#f59e0b" stroke-width="2" fill="none" marker-end="url(#arrowAmber)"/>
  <text x="585" y="508" font-family="Arial, sans-serif" font-size="11" fill="#22c55e">Yes</text>

  <g filter="url(#shadow)">
    <rect x="400" y="495" width="140" height="40" rx="6" fill="url(#amberGrad)"/>
    <text x="470" y="520" font-family="Arial, sans-serif" font-size="13" font-weight="bold" fill="#fff" text-anchor="middle">add-phase</text>
  </g>

  <!-- Arrow from add-phase back up to add-phase decision -->
  <path d="M400,515 L360,515 L360,475 L620,475 L620,500" stroke="#f59e0b" stroke-width="2" fill="none" marker-end="url(#arrowAmber)" stroke-dasharray="5,3"/>

  <!-- No path from add-phase decision to P entry -->
  <path d="M680,555 L680,580" stroke="#22c55e" stroke-width="2" fill="none" marker-end="url(#arrowGreen)"/>
  <text x="688" y="568" font-family="Arial, sans-serif" font-size="11" fill="#ef4444">No</text>

  <!-- ==================== PHASE LOOP (Green) ==================== -->
  <rect x="270" y="590" width="665" height="210" rx="12" fill="none" stroke="#22c55e" stroke-width="3" stroke-dasharray="10,5" opacity="0.7"/>
  <text x="285" y="615" font-family="Arial, sans-serif" font-size="13" font-weight="bold" fill="#22c55e">PHASE LOOP</text>

  <!-- P Entry Circle -->
  <g filter="url(#glow)">
    <circle cx="680" cy="620" r="18" fill="#22c55e" stroke="#4ade80" stroke-width="2"/>
    <text x="680" y="626" font-family="Arial, sans-serif" font-size="16" font-weight="bold" fill="#1f2937" text-anchor="middle">P</text>
  </g>

  <!-- Arrow: P to discuss-phase -->
  <path d="M662,620 L555,620" stroke="#22c55e" stroke-width="2" fill="none" marker-end="url(#arrowGreen)"/>

  <!-- discuss-phase -->
  <g filter="url(#shadow)">
    <rect x="420" y="600" width="135" height="40" rx="6" fill="url(#greenGrad)"/>
    <text x="487" y="625" font-family="Arial, sans-serif" font-size="13" font-weight="bold" fill="#fff" text-anchor="middle">discuss-phase</text>
  </g>

  <!-- Optional research path -->
  <path d="M420,620 L380,620 L380,680 L420,680" stroke="#22c55e" stroke-width="2" fill="none" marker-end="url(#arrowGreen)" stroke-dasharray="5,3"/>
  <text x="350" y="650" font-family="Arial, sans-serif" font-size="10" fill="#9ca3af" text-anchor="middle">optional</text>

  <!-- research-phase -->
  <g filter="url(#shadow)">
    <rect x="420" y="660" width="135" height="40" rx="6" fill="url(#greenGrad)"/>
    <text x="487" y="685" font-family="Arial, sans-serif" font-size="13" font-weight="bold" fill="#fff" text-anchor="middle">research-phase</text>
  </g>

  <!-- Arrow from discuss-phase to list-assumptions -->
  <path d="M487,640 L487,660" stroke="#22c55e" stroke-width="2" fill="none" marker-end="url(#arrowGreen)"/>

  <!-- list-phase-assumptions (optional path from research) -->
  <path d="M555,680 L595,680" stroke="#22c55e" stroke-width="2" fill="none" marker-end="url(#arrowGreen)"/>

  <g filter="url(#shadow)">
    <rect x="595" y="660" width="105" height="40" rx="6" fill="url(#greenGrad)"/>
    <text x="647" y="677" font-family="Arial, sans-serif" font-size="10" font-weight="bold" fill="#fff" text-anchor="middle">list-phase-</text>
    <text x="647" y="691" font-family="Arial, sans-serif" font-size="10" font-weight="bold" fill="#fff" text-anchor="middle">assumptions</text>
  </g>

  <!-- Arrow to plan-phase -->
  <path d="M700,680 L740,680" stroke="#22c55e" stroke-width="2" fill="none" marker-end="url(#arrowGreen)"/>

  <!-- plan-phase -->
  <g filter="url(#shadow)">
    <rect x="740" y="660" width="115" height="40" rx="6" fill="url(#greenGrad)"/>
    <text x="797" y="685" font-family="Arial, sans-serif" font-size="13" font-weight="bold" fill="#fff" text-anchor="middle">plan-phase</text>
  </g>

  <!-- Arrow: plan-phase to execute-plan -->
  <path d="M797,700 L797,730 L650,730" stroke="#22c55e" stroke-width="2" fill="none" marker-end="url(#arrowGreen)"/>

  <!-- execute-plan -->
  <g filter="url(#shadow)">
    <rect x="520" y="710" width="130" height="40" rx="6" fill="url(#greenGrad)"/>
    <text x="585" y="735" font-family="Arial, sans-serif" font-size="13" font-weight="bold" fill="#fff" text-anchor="middle">execute-plan</text>
  </g>

  <!-- Arrow: execute-plan to more phases decision -->
  <path d="M520,730 L420,730 L420,770 L870,770" stroke="#22c55e" stroke-width="2" fill="none" marker-end="url(#arrowGreen)"/>

  <!-- More phases decision (outside phase loop, inside milestone loop) -->
  <g filter="url(#shadow)">
    <polygon points="950,770 1030,810 950,850 870,810" fill="#1f2937" stroke="#22c55e" stroke-width="2"/>
    <text x="950" y="806" font-family="Arial, sans-serif" font-size="11" fill="#e5e7eb" text-anchor="middle">More</text>
    <text x="950" y="820" font-family="Arial, sans-serif" font-size="11" fill="#e5e7eb" text-anchor="middle">phases?</text>
  </g>

  <!-- Yes: loop back to P -->
  <path d="M950,770 L950,605 L698,605 L698,620" stroke="#22c55e" stroke-width="2" fill="none" marker-end="url(#arrowGreen)"/>
  <text x="960" y="685" font-family="Arial, sans-serif" font-size="11" fill="#22c55e">Yes</text>

  <!-- No: exit to milestone completion -->
  <path d="M1030,810 L1100,810" stroke="#f59e0b" stroke-width="2" fill="none" marker-end="url(#arrowAmber)"/>
  <text x="1055" y="803" font-family="Arial, sans-serif" font-size="11" fill="#ef4444">No</text>

  <!-- ==================== MILESTONE COMPLETION COLUMN ==================== -->

  <!-- complete-milestone -->
  <g filter="url(#shadow)">
    <rect x="1100" y="790" width="100" height="40" rx="6" fill="url(#amberGrad)"/>
    <text x="1150" y="807" font-family="Arial, sans-serif" font-size="10" font-weight="bold" fill="#fff" text-anchor="middle">complete-</text>
    <text x="1150" y="821" font-family="Arial, sans-serif" font-size="10" font-weight="bold" fill="#fff" text-anchor="middle">milestone</text>
  </g>

  <!-- Arrow down to next milestone decision -->
  <path d="M1150,830 L1150,865" stroke="#f59e0b" stroke-width="2" fill="none" marker-end="url(#arrowAmber)"/>

  <!-- Next milestone decision -->
  <g filter="url(#shadow)">
    <polygon points="1150,875 1200,905 1150,935 1100,905" fill="#1f2937" stroke="#f59e0b" stroke-width="2"/>
    <text x="1150" y="901" font-family="Arial, sans-serif" font-size="10" fill="#e5e7eb" text-anchor="middle">Another</text>
    <text x="1150" y="914" font-family="Arial, sans-serif" font-size="10" fill="#e5e7eb" text-anchor="middle">milestone?</text>
  </g>

  <!-- Yes: loop back to M -->
  <path d="M1100,905 L260,905 L260,270 L662,270" stroke="#f59e0b" stroke-width="2" fill="none" marker-end="url(#arrowAmber)"/>
  <text x="285" y="898" font-family="Arial, sans-serif" font-size="11" fill="#22c55e">Yes</text>

  <!-- No: to END -->
  <path d="M1150,935 L1150,970" stroke="#9ca3af" stroke-width="2" fill="none" marker-end="url(#arrowGray)"/>
  <text x="1160" y="953" font-family="Arial, sans-serif" font-size="11" fill="#ef4444">No</text>

  <!-- End Node -->
  <g filter="url(#shadow)">
    <ellipse cx="1150" cy="1000" rx="55" ry="22" fill="#1f2937" stroke="#4b5563" stroke-width="2"/>
    <text x="1150" y="1005" font-family="Arial, sans-serif" font-size="14" font-weight="bold" fill="#e5e7eb" text-anchor="middle">END</text>
  </g>

  <!-- ==================== OPTIONAL COMMANDS ==================== -->

  <!-- Insert-phase (optional, dashed) -->
  <g filter="url(#softShadow)" opacity="0.85">
    <rect x="280" y="475" width="100" height="35" rx="5" fill="url(#amberGrad)" stroke="#fbbf24" stroke-width="1" stroke-dasharray="4,2"/>
    <text x="330" y="497" font-family="Arial, sans-serif" font-size="11" font-weight="bold" fill="#fff" text-anchor="middle">insert-phase</text>
  </g>
  <text x="330" y="520" font-family="Arial, sans-serif" font-size="9" fill="#9ca3af" text-anchor="middle">(urgent work)</text>

  <!-- consider-issues (optional) -->
  <g filter="url(#softShadow)" opacity="0.85">
    <rect x="1005" y="875" width="85" height="35" rx="5" fill="url(#grayGrad)" stroke="#9ca3af" stroke-width="1" stroke-dasharray="4,2"/>
    <text x="1047" y="890" font-family="Arial, sans-serif" font-size="9" font-weight="bold" fill="#fff" text-anchor="middle">consider-</text>
    <text x="1047" y="902" font-family="Arial, sans-serif" font-size="9" font-weight="bold" fill="#fff" text-anchor="middle">issues</text>
  </g>
  <text x="1047" y="922" font-family="Arial, sans-serif" font-size="9" fill="#9ca3af" text-anchor="middle">(deferred work)</text>

  <!-- ==================== BOTTOM STATUS BAR ==================== -->
  <g filter="url(#softShadow)">
    <rect x="20" y="1050" width="1402" height="105" rx="10" fill="url(#cardGrad)" stroke="#374151" stroke-width="1"/>

    <text x="721" y="1078" font-family="Arial, sans-serif" font-size="14" font-weight="bold" fill="#e5e7eb" text-anchor="middle">STATE TRACKING</text>
    <line x1="50" y1="1088" x2="1392" y2="1088" stroke="#374151" stroke-width="1"/>

    <!-- State indicators -->
    <rect x="70" y="1103" width="14" height="14" rx="3" fill="url(#cyanGrad)"/>
    <text x="92" y="1115" font-family="Arial, sans-serif" font-size="12" fill="#e5e7eb">Work in progress tracked in PLAN.md and ROADMAP.md</text>

    <rect x="480" y="1103" width="14" height="14" rx="3" fill="url(#amberGrad)"/>
    <text x="502" y="1115" font-family="Arial, sans-serif" font-size="12" fill="#e5e7eb">Milestone: v# of # • Phase # of #</text>

    <rect x="780" y="1103" width="14" height="14" rx="3" fill="url(#greenGrad)"/>
    <text x="802" y="1115" font-family="Arial, sans-serif" font-size="12" fill="#e5e7eb">Phase • Plan • In progress</text>

    <rect x="1040" y="1103" width="14" height="14" rx="3" fill="#6b7280"/>
    <text x="1062" y="1115" font-family="Arial, sans-serif" font-size="12" fill="#e5e7eb">Context: consider-issues</text>
  </g>

  <!-- Flow Key -->
  <text x="721" y="1138" font-family="Arial, sans-serif" font-size="12" fill="#6b7280" text-anchor="middle">GSD Workflow: • Project → Milestone → Phase → Plan → In progress</text>

  <!-- Signature -->
  <text x="1380" y="1165" font-family="Arial, sans-serif" font-size="10" fill="#4b5563" text-anchor="end">v10</text>
</svg>