<svg xmlns="http://www.w3.org/2000/svg" viewBox="0 0 1442 1173">
  <defs>
    <linearGradient id="bgGrad" x1="0%" y1="0%" x2="100%" y2="100%">
      <stop offset="0%" style="stop-color:#0f172a"/>
      <stop offset="50%" style="stop-color:#1e293b"/>
      <stop offset="100%" style="stop-color:#0f172a"/>
    </linearGradient>
    <linearGradient id="blueGrad" x1="0%" y1="0%" x2="100%" y2="100%">
      <stop offset="0%" style="stop-color:#3b82f6"/>
      <stop offset="100%" style="stop-color:#1d4ed8"/>
    </linearGradient>
    <linearGradient id="amberGrad" x1="0%" y1="0%" x2="100%" y2="100%">
      <stop offset="0%" style="stop-color:#f59e0b"/>
      <stop offset="100%" style="stop-color:#d97706"/>
    </linearGradient>
    <linearGradient id="greenGrad" x1="0%" y1="0%" x2="100%" y2="100%">
      <stop offset="0%" style="stop-color:#22c55e"/>
      <stop offset="100%" style="stop-color:#16a34a"/>
    </linearGradient>
    <linearGradient id="grayGrad" x1="0%" y1="0%" x2="100%" y2="100%">
      <stop offset="0%" style="stop-color:#64748b"/>
      <stop offset="100%" style="stop-color:#475569"/>
    </linearGradient>

    <filter id="shadow" x="-20%" y="-20%" width="140%" height="140%">
      <feDropShadow dx="2" dy="3" stdDeviation="3" flood-opacity="0.25"/>
    </filter>
    <filter id="glow">
      <feGaussianBlur stdDeviation="2" result="coloredBlur"/>
      <feMerge><feMergeNode in="coloredBlur"/><feMergeNode in="SourceGraphic"/></feMerge>
    </filter>

    <marker id="arrow" markerWidth="10" markerHeight="7" refX="9" refY="3.5" orient="auto">
      <polygon points="0 0, 10 3.5, 0 7" fill="#64748b"/>
    </marker>
    <marker id="arrowGreen" markerWidth="10" markerHeight="7" refX="9" refY="3.5" orient="auto">
      <polygon points="0 0, 10 3.5, 0 7" fill="#22c55e"/>
    </marker>
    <marker id="arrowAmber" markerWidth="10" markerHeight="7" refX="9" refY="3.5" orient="auto">
      <polygon points="0 0, 10 3.5, 0 7" fill="#f59e0b"/>
    </marker>
  </defs>

  <!-- Background -->
  <rect width="1442" height="1173" fill="url(#bgGrad)"/>
  <pattern id="grid" width="40" height="40" patternUnits="userSpaceOnUse">
    <path d="M 40 0 L 0 0 0 40" fill="none" stroke="#334155" stroke-width="0.3" opacity="0.3"/>
  </pattern>
  <rect width="1442" height="1173" fill="url(#grid)"/>

  <!-- Title -->
  <text x="721" y="40" text-anchor="middle" fill="#f8fafc" font-family="system-ui, -apple-system, sans-serif" font-size="32" font-weight="bold" filter="url(#glow)">GSD (GET SHIT DONE) WORKFLOW</text>
  <text x="721" y="65" text-anchor="middle" fill="#94a3b8" font-family="system-ui, sans-serif" font-size="14">Complete Flowchart | 18 Commands | AI-Assisted CLI for Structured Development</text>

  <!-- ═══════════════════════════════════════════════════════════════════════ -->
  <!-- LEFT SIDEBAR -->
  <!-- ═══════════════════════════════════════════════════════════════════════ -->

  <!-- File Structure -->
  <rect x="20" y="90" width="260" height="380" rx="10" fill="#1e293b" stroke="#334155" stroke-width="1.5" filter="url(#shadow)"/>
  <text x="150" y="116" text-anchor="middle" fill="#f8fafc" font-family="system-ui, sans-serif" font-size="14" font-weight="bold">FILE STRUCTURE</text>

  <text x="35" y="142" fill="#fbbf24" font-family="monospace" font-size="12">.planning/</text>
  <text x="45" y="162" fill="#e2e8f0" font-family="monospace" font-size="11">├── PROJECT.md</text>
  <text x="45" y="180" fill="#e2e8f0" font-family="monospace" font-size="11">├── ROADMAP.md</text>
  <text x="45" y="198" fill="#e2e8f0" font-family="monospace" font-size="11">├── STATE.md</text>
  <text x="45" y="216" fill="#e2e8f0" font-family="monospace" font-size="11">├── ISSUES.md</text>
  <text x="45" y="234" fill="#e2e8f0" font-family="monospace" font-size="11">├── config.json</text>
  <text x="45" y="252" fill="#e2e8f0" font-family="monospace" font-size="11">├── MILESTONES.md</text>
  <text x="45" y="275" fill="#f59e0b" font-family="monospace" font-size="11">├── milestones/</text>
  <text x="60" y="293" fill="#94a3b8" font-family="monospace" font-size="10">└── v1.0-mvp.md</text>
  <text x="45" y="316" fill="#3b82f6" font-family="monospace" font-size="11">├── codebase/</text>
  <text x="60" y="334" fill="#94a3b8" font-family="monospace" font-size="10">└── STACK.md, ...</text>
  <text x="45" y="357" fill="#22c55e" font-family="monospace" font-size="11">└── phases/</text>
  <text x="60" y="377" fill="#e2e8f0" font-family="monospace" font-size="10">├── 01-foundation/</text>
  <text x="75" y="395" fill="#94a3b8" font-family="monospace" font-size="9">├── *-CONTEXT.md</text>
  <text x="75" y="411" fill="#94a3b8" font-family="monospace" font-size="9">├── *-RESEARCH.md</text>
  <text x="75" y="427" fill="#94a3b8" font-family="monospace" font-size="9">├── *-PLAN.md</text>
  <text x="75" y="443" fill="#94a3b8" font-family="monospace" font-size="9">└── *-SUMMARY.md</text>
  <text x="60" y="463" fill="#e2e8f0" font-family="monospace" font-size="10">└── 72.1-hotfix/</text>

  <!-- Legend -->
  <rect x="20" y="485" width="260" height="170" rx="10" fill="#1e293b" stroke="#334155" stroke-width="1.5" filter="url(#shadow)"/>
  <text x="150" y="510" text-anchor="middle" fill="#f8fafc" font-family="system-ui, sans-serif" font-size="14" font-weight="bold">LEGEND</text>

  <rect x="35" y="528" width="18" height="18" rx="3" fill="url(#blueGrad)"/>
  <text x="60" y="542" fill="#e2e8f0" font-family="system-ui, sans-serif" font-size="11">Project Setup</text>
  <rect x="150" y="528" width="18" height="18" rx="3" fill="url(#greenGrad)"/>
  <text x="175" y="542" fill="#e2e8f0" font-family="system-ui, sans-serif" font-size="11">Phase Work</text>

  <rect x="35" y="554" width="18" height="18" rx="3" fill="url(#amberGrad)"/>
  <text x="60" y="568" fill="#e2e8f0" font-family="system-ui, sans-serif" font-size="11">Milestone</text>
  <rect x="150" y="554" width="18" height="18" rx="3" fill="url(#grayGrad)"/>
  <text x="175" y="568" fill="#e2e8f0" font-family="system-ui, sans-serif" font-size="11">Utilities</text>

  <rect x="35" y="580" width="18" height="18" rx="3" fill="none" stroke="#64748b" stroke-dasharray="3,2"/>
  <text x="60" y="594" fill="#e2e8f0" font-family="system-ui, sans-serif" font-size="11">Optional</text>
  <polygon points="159,589 177,589 168,580" fill="#64748b"/>
  <text x="185" y="594" fill="#e2e8f0" font-family="system-ui, sans-serif" font-size="11">Decision</text>

  <path d="M 35 618 L 55 618" stroke="#22c55e" stroke-width="3" stroke-dasharray="5,3"/>
  <text x="60" y="623" fill="#86efac" font-family="system-ui, sans-serif" font-size="11">Phase Loop</text>
  <path d="M 150 618 L 170 618" stroke="#f59e0b" stroke-width="3" stroke-dasharray="7,4"/>
  <text x="175" y="623" fill="#fcd34d" font-family="system-ui, sans-serif" font-size="11">Milestone Loop</text>

  <ellipse cx="44" cy="645" rx="10" ry="8" fill="#0f172a" stroke="#64748b"/>
  <text x="60" y="650" fill="#e2e8f0" font-family="system-ui, sans-serif" font-size="11">Terminal</text>

  <!-- Utilities -->
  <rect x="20" y="670" width="260" height="245" rx="10" fill="#1e293b" stroke="#64748b" stroke-width="1.5" filter="url(#shadow)"/>
  <text x="150" y="695" text-anchor="middle" fill="#f8fafc" font-family="system-ui, sans-serif" font-size="14" font-weight="bold">UTILITIES (anytime)</text>

  <rect x="35" y="715" width="230" height="30" rx="5" fill="url(#grayGrad)" filter="url(#shadow)"/>
  <text x="150" y="735" text-anchor="middle" fill="#fff" font-family="monospace" font-size="11">/gsd:progress</text>
  <rect x="35" y="752" width="230" height="30" rx="5" fill="url(#grayGrad)" filter="url(#shadow)"/>
  <text x="150" y="772" text-anchor="middle" fill="#fff" font-family="monospace" font-size="11">/gsd:pause-work</text>
  <rect x="35" y="789" width="230" height="30" rx="5" fill="url(#grayGrad)" filter="url(#shadow)"/>
  <text x="150" y="809" text-anchor="middle" fill="#fff" font-family="monospace" font-size="11">/gsd:resume-work</text>
  <rect x="35" y="826" width="110" height="26" rx="4" fill="url(#grayGrad)" opacity="0.7"/>
  <text x="90" y="844" text-anchor="middle" fill="#fff" font-family="monospace" font-size="10">add-phase</text>
  <rect x="155" y="826" width="110" height="26" rx="4" fill="url(#grayGrad)" opacity="0.7"/>
  <text x="210" y="844" text-anchor="middle" fill="#fff" font-family="monospace" font-size="10">insert-phase</text>
  <rect x="35" y="858" width="110" height="26" rx="4" fill="url(#grayGrad)" opacity="0.7"/>
  <text x="90" y="876" text-anchor="middle" fill="#fff" font-family="monospace" font-size="10">consider-issues</text>
  <rect x="155" y="858" width="110" height="26" rx="4" fill="url(#grayGrad)" opacity="0.7"/>
  <text x="210" y="876" text-anchor="middle" fill="#fff" font-family="monospace" font-size="10">help</text>

  <!-- ═══════════════════════════════════════════════════════════════════════ -->
  <!-- MAIN FLOWCHART -->
  <!-- ═══════════════════════════════════════════════════════════════════════ -->

  <rect x="300" y="90" width="1120" height="825" rx="10" fill="#1e293b" stroke="#334155" stroke-width="1.5" filter="url(#shadow)"/>
  <text x="860" y="116" text-anchor="middle" fill="#f8fafc" font-family="system-ui, sans-serif" font-size="15" font-weight="bold">COMPLETE WORKFLOW FLOWCHART</text>

  <!-- ─────────────────────────────────────────────────────────────────────── -->
  <!-- PROJECT SETUP ROW -->
  <!-- ─────────────────────────────────────────────────────────────────────── -->

  <!-- Start -->
  <ellipse cx="380" cy="165" rx="40" ry="20" fill="#0f172a" stroke="#64748b" stroke-width="2"/>
  <text x="380" y="170" text-anchor="middle" fill="#e2e8f0" font-family="system-ui, sans-serif" font-size="12">START</text>

  <path d="M 420 165 L 470 165" stroke="#64748b" stroke-width="2" marker-end="url(#arrow)"/>

  <!-- Decision: Existing code? -->
  <polygon points="530,165 585,195 530,225 475,195" fill="#0f172a" stroke="#3b82f6" stroke-width="2"/>
  <text x="530" y="192" text-anchor="middle" fill="#93c5fd" font-family="system-ui, sans-serif" font-size="10">Existing</text>
  <text x="530" y="205" text-anchor="middle" fill="#93c5fd" font-family="system-ui, sans-serif" font-size="10">code?</text>

  <!-- Yes - down to map-codebase -->
  <path d="M 530 225 L 530 255" stroke="#64748b" stroke-width="2" marker-end="url(#arrow)"/>
  <text x="540" y="245" fill="#94a3b8" font-family="system-ui, sans-serif" font-size="10">Yes</text>

  <!-- map-codebase (optional) -->
  <rect x="465" y="265" width="130" height="42" rx="6" fill="url(#blueGrad)" opacity="0.5" stroke="#3b82f6"/>
  <text x="530" y="283" text-anchor="middle" fill="#fff" font-family="monospace" font-size="10">map-codebase</text>
  <text x="530" y="298" text-anchor="middle" fill="#dbeafe" font-family="system-ui, sans-serif" font-size="9">(optional)</text>

  <path d="M 595 286 L 645 286 L 645 195" stroke="#64748b" stroke-width="2" marker-end="url(#arrow)"/>

  <!-- No - to new-project -->
  <path d="M 585 195 L 655 195" stroke="#64748b" stroke-width="2"/>
  <text x="620" y="187" fill="#94a3b8" font-family="system-ui, sans-serif" font-size="10">No</text>

  <!-- new-project -->
  <rect x="665" y="170" width="125" height="50" rx="8" fill="url(#blueGrad)" filter="url(#shadow)"/>
  <text x="727" y="190" text-anchor="middle" fill="#fff" font-family="monospace" font-size="11" font-weight="bold">new-project</text>
  <text x="727" y="208" text-anchor="middle" fill="#dbeafe" font-family="system-ui, sans-serif" font-size="10">PROJECT.md</text>

  <path d="M 790 195 L 830 195" stroke="#64748b" stroke-width="2" marker-end="url(#arrow)"/>

  <!-- create-roadmap -->
  <rect x="840" y="170" width="135" height="50" rx="8" fill="url(#blueGrad)" filter="url(#shadow)"/>
  <text x="907" y="190" text-anchor="middle" fill="#fff" font-family="monospace" font-size="10" font-weight="bold">create-roadmap</text>
  <text x="907" y="208" text-anchor="middle" fill="#dbeafe" font-family="system-ui, sans-serif" font-size="10">ROADMAP.md</text>

  <path d="M 907 220 L 907 260" stroke="#64748b" stroke-width="2" marker-end="url(#arrow)"/>

  <!-- ─────────────────────────────────────────────────────────────────────── -->
  <!-- MILESTONE LOOP (outer amber box) -->
  <!-- ─────────────────────────────────────────────────────────────────────── -->

  <rect x="330" y="270" width="870" height="505" rx="12" fill="none" stroke="#f59e0b" stroke-width="3" stroke-dasharray="10,5"/>
  <rect x="330" y="270" width="155" height="25" rx="6" fill="url(#amberGrad)"/>
  <text x="407" y="287" text-anchor="middle" fill="#fff" font-family="system-ui, sans-serif" font-size="11" font-weight="bold">MILESTONE LOOP</text>

  <!-- Milestone Entry (M) -->
  <circle cx="907" cy="310" r="18" fill="#f59e0b" stroke="#fcd34d" stroke-width="2"/>
  <text x="907" y="316" text-anchor="middle" fill="#fff" font-family="system-ui, sans-serif" font-size="14" font-weight="bold">M</text>

  <path d="M 907 328 L 907 360" stroke="#64748b" stroke-width="2" marker-end="url(#arrow)"/>

  <!-- ─────────────────────────────────────────────────────────────────────── -->
  <!-- PHASE LOOP (inner green box) -->
  <!-- ─────────────────────────────────────────────────────────────────────── -->

  <rect x="360" y="370" width="540" height="310" rx="10" fill="none" stroke="#22c55e" stroke-width="3" stroke-dasharray="6,3"/>
  <rect x="360" y="370" width="120" height="23" rx="6" fill="url(#greenGrad)"/>
  <text x="420" y="386" text-anchor="middle" fill="#fff" font-family="system-ui, sans-serif" font-size="10" font-weight="bold">PHASE LOOP</text>

  <!-- Phase Entry (P) -->
  <circle cx="630" cy="420" r="16" fill="#22c55e" stroke="#86efac" stroke-width="2"/>
  <text x="630" y="425" text-anchor="middle" fill="#fff" font-family="system-ui, sans-serif" font-size="12" font-weight="bold">P</text>

  <!-- Arrow from M to P -->
  <path d="M 907 360 L 907 405 L 650 405 L 650 420 L 646 420" stroke="#64748b" stroke-width="2" marker-end="url(#arrow)"/>

  <path d="M 630 436 L 630 465" stroke="#64748b" stroke-width="2" marker-end="url(#arrow)"/>

  <!-- Decision: Need prep? -->
  <polygon points="630,475 685,505 630,535 575,505" fill="#0f172a" stroke="#22c55e" stroke-width="2"/>
  <text x="630" y="502" text-anchor="middle" fill="#86efac" font-family="system-ui, sans-serif" font-size="9">Need</text>
  <text x="630" y="514" text-anchor="middle" fill="#86efac" font-family="system-ui, sans-serif" font-size="9">prep?</text>

  <!-- Yes - left to optional -->
  <path d="M 575 505 L 520 505" stroke="#64748b" stroke-width="2" marker-end="url(#arrow)"/>
  <text x="547" y="497" fill="#94a3b8" font-family="system-ui, sans-serif" font-size="10">Yes</text>

  <!-- Optional preparation box -->
  <rect x="385" y="450" width="125" height="110" rx="6" fill="#22c55e" opacity="0.1" stroke="#22c55e" stroke-dasharray="4,2"/>
  <text x="447" y="468" text-anchor="middle" fill="#86efac" font-family="system-ui, sans-serif" font-size="9" font-style="italic">Optional (any order)</text>
  <rect x="395" y="478" width="105" height="22" rx="3" fill="#22c55e" opacity="0.3"/>
  <text x="447" y="493" text-anchor="middle" fill="#e2e8f0" font-family="monospace" font-size="8">list-assumptions</text>
  <rect x="395" y="504" width="105" height="22" rx="3" fill="#22c55e" opacity="0.3"/>
  <text x="447" y="519" text-anchor="middle" fill="#e2e8f0" font-family="monospace" font-size="8">discuss-phase</text>
  <rect x="395" y="530" width="105" height="22" rx="3" fill="#22c55e" opacity="0.3"/>
  <text x="447" y="545" text-anchor="middle" fill="#e2e8f0" font-family="monospace" font-size="8">research-phase</text>

  <!-- From optional down to plan-phase -->
  <path d="M 447 560 L 447 585 L 630 585 L 630 565" stroke="#64748b" stroke-width="2" marker-end="url(#arrow)"/>

  <!-- No - down to plan-phase -->
  <path d="M 630 535 L 630 565" stroke="#64748b" stroke-width="2"/>
  <text x="642" y="555" fill="#94a3b8" font-family="system-ui, sans-serif" font-size="10">No</text>

  <!-- plan-phase -->
  <rect x="565" y="575" width="130" height="48" rx="8" fill="url(#greenGrad)" filter="url(#shadow)"/>
  <text x="630" y="594" text-anchor="middle" fill="#fff" font-family="monospace" font-size="11" font-weight="bold">plan-phase</text>
  <text x="630" y="612" text-anchor="middle" fill="#dcfce7" font-family="system-ui, sans-serif" font-size="9">PLAN.md</text>

  <path d="M 695 599 L 740 599" stroke="#64748b" stroke-width="2" marker-end="url(#arrow)"/>

  <!-- execute-plan -->
  <rect x="750" y="575" width="130" height="48" rx="8" fill="url(#greenGrad)" filter="url(#shadow)"/>
  <text x="815" y="594" text-anchor="middle" fill="#fff" font-family="monospace" font-size="11" font-weight="bold">execute-plan</text>
  <text x="815" y="612" text-anchor="middle" fill="#dcfce7" font-family="system-ui, sans-serif" font-size="9">SUMMARY.md</text>

  <path d="M 815 623 L 815 650" stroke="#64748b" stroke-width="2" marker-end="url(#arrow)"/>

  <!-- Decision: More phases? -->
  <polygon points="815,660 870,690 815,720 760,690" fill="#0f172a" stroke="#22c55e" stroke-width="2"/>
  <text x="815" y="687" text-anchor="middle" fill="#86efac" font-family="system-ui, sans-serif" font-size="9">More</text>
  <text x="815" y="700" text-anchor="middle" fill="#86efac" font-family="system-ui, sans-serif" font-size="9">phases?</text>

  <!-- Yes - loop back to P (green arrow along bottom then up left side) -->
  <path d="M 760 690 L 390 690 L 390 435 L 614 435" stroke="#22c55e" stroke-width="3" fill="none" marker-end="url(#arrowGreen)"/>
  <text x="520" y="683" fill="#22c55e" font-family="system-ui, sans-serif" font-size="11" font-weight="bold">Yes → next phase</text>

  <!-- No - exit to milestone completion -->
  <path d="M 870 690 L 920 690" stroke="#64748b" stroke-width="2" marker-end="url(#arrow)"/>
  <text x="895" y="682" fill="#94a3b8" font-family="system-ui, sans-serif" font-size="10">No</text>

  <!-- ─────────────────────────────────────────────────────────────────────── -->
  <!-- MILESTONE COMPLETION (right column, clean vertical flow) -->
  <!-- ─────────────────────────────────────────────────────────────────────── -->

  <!-- complete-milestone -->
  <rect x="930" y="400" width="145" height="48" rx="8" fill="url(#amberGrad)" filter="url(#shadow)"/>
  <text x="1002" y="419" text-anchor="middle" fill="#fff" font-family="monospace" font-size="10" font-weight="bold">complete-milestone</text>
  <text x="1002" y="437" text-anchor="middle" fill="#fef3c7" font-family="system-ui, sans-serif" font-size="9">Git tag vX.X</text>

  <!-- Arrow from phase exit to complete-milestone -->
  <path d="M 930 690 L 1002 690 L 1002 448" stroke="#64748b" stroke-width="2" marker-end="url(#arrow)"/>

  <path d="M 1002 448 L 1002 475" stroke="#64748b" stroke-width="2" marker-end="url(#arrow)"/>

  <!-- Decision: More work? -->
  <polygon points="1002,485 1057,515 1002,545 947,515" fill="#0f172a" stroke="#f59e0b" stroke-width="2"/>
  <text x="1002" y="512" text-anchor="middle" fill="#fcd34d" font-family="system-ui, sans-serif" font-size="9">More</text>
  <text x="1002" y="525" text-anchor="middle" fill="#fcd34d" font-family="system-ui, sans-serif" font-size="9">work?</text>

  <!-- No - right to END -->
  <path d="M 1057 515 L 1120 515" stroke="#64748b" stroke-width="2" marker-end="url(#arrow)"/>
  <text x="1088" y="507" fill="#94a3b8" font-family="system-ui, sans-serif" font-size="10">No</text>

  <!-- END -->
  <ellipse cx="1155" cy="515" rx="38" ry="20" fill="#0f172a" stroke="#64748b" stroke-width="2"/>
  <text x="1155" y="520" text-anchor="middle" fill="#e2e8f0" font-family="system-ui, sans-serif" font-size="12">END</text>

  <!-- Yes - down -->
  <path d="M 1002 545 L 1002 575" stroke="#64748b" stroke-width="2" marker-end="url(#arrow)"/>
  <text x="1014" y="565" fill="#94a3b8" font-family="system-ui, sans-serif" font-size="10">Yes</text>

  <!-- Decision: Discuss first? -->
  <polygon points="1002,585 1057,615 1002,645 947,615" fill="#0f172a" stroke="#f59e0b" stroke-width="2"/>
  <text x="1002" y="612" text-anchor="middle" fill="#fcd34d" font-family="system-ui, sans-serif" font-size="8">Discuss</text>
  <text x="1002" y="624" text-anchor="middle" fill="#fcd34d" font-family="system-ui, sans-serif" font-size="8">first?</text>

  <!-- Yes - left to discuss-milestone -->
  <path d="M 947 615 L 1110 615 L 1110 680" stroke="#64748b" stroke-width="2" marker-end="url(#arrow)"/>
  <text x="1030" y="607" fill="#94a3b8" font-family="system-ui, sans-serif" font-size="10">Yes</text>

  <!-- discuss-milestone (optional) -->
  <rect x="1045" y="690" width="130" height="45" rx="8" fill="url(#amberGrad)" opacity="0.5" stroke="#f59e0b"/>
  <text x="1110" y="708" text-anchor="middle" fill="#fff" font-family="monospace" font-size="9">discuss-milestone</text>
  <text x="1110" y="724" text-anchor="middle" fill="#fef3c7" font-family="system-ui, sans-serif" font-size="8">(optional)</text>

  <path d="M 1110 735 L 1110 755 L 1002 755 L 1002 735" stroke="#64748b" stroke-width="2" marker-end="url(#arrow)"/>

  <!-- No - down to new-milestone -->
  <path d="M 1002 645 L 1002 690" stroke="#64748b" stroke-width="2" marker-end="url(#arrow)"/>
  <text x="1014" y="672" fill="#94a3b8" font-family="system-ui, sans-serif" font-size="10">No</text>

  <!-- new-milestone -->
  <rect x="937" y="695" width="130" height="48" rx="8" fill="url(#amberGrad)" filter="url(#shadow)"/>
  <text x="1002" y="714" text-anchor="middle" fill="#fff" font-family="monospace" font-size="10" font-weight="bold">new-milestone</text>
  <text x="1002" y="732" text-anchor="middle" fill="#fef3c7" font-family="system-ui, sans-serif" font-size="9">ROADMAP.md</text>

  <!-- Loop back to M (amber arrow - down, left along bottom, up left side) -->
  <path d="M 937 720 L 360 720 L 360 325 L 889 325" stroke="#f59e0b" stroke-width="3" fill="none" marker-end="url(#arrowAmber)"/>
  <text x="580" y="735" fill="#f59e0b" font-family="system-ui, sans-serif" font-size="11" font-weight="bold">Start new milestone → back to M</text>

  <!-- ═══════════════════════════════════════════════════════════════════════ -->
  <!-- BOTTOM: State Tracking -->
  <!-- ═══════════════════════════════════════════════════════════════════════ -->

  <rect x="20" y="930" width="1400" height="95" rx="10" fill="#1e293b" stroke="#334155" stroke-width="1.5" filter="url(#shadow)"/>
  <text x="120" y="958" text-anchor="middle" fill="#f8fafc" font-family="system-ui, sans-serif" font-size="14" font-weight="bold">STATE TRACKING</text>

  <text x="40" y="985" fill="#94a3b8" font-family="system-ui, sans-serif" font-size="12">Status:</text>
  <rect x="90" y="970" width="90" height="22" rx="3" fill="#3b82f6" opacity="0.3"/>
  <text x="135" y="985" text-anchor="middle" fill="#93c5fd" font-family="monospace" font-size="10">Ready to plan</text>
  <rect x="190" y="970" width="65" height="22" rx="3" fill="#f59e0b" opacity="0.3"/>
  <text x="222" y="985" text-anchor="middle" fill="#fcd34d" font-family="monospace" font-size="10">Planning</text>
  <rect x="265" y="970" width="95" height="22" rx="3" fill="#22c55e" opacity="0.3"/>
  <text x="312" y="985" text-anchor="middle" fill="#86efac" font-family="monospace" font-size="10">Ready to execute</text>
  <rect x="370" y="970" width="75" height="22" rx="3" fill="#06b6d4" opacity="0.3"/>
  <text x="407" y="985" text-anchor="middle" fill="#67e8f9" font-family="monospace" font-size="10">In progress</text>
  <rect x="455" y="970" width="90" height="22" rx="3" fill="#22c55e" opacity="0.5"/>
  <text x="500" y="985" text-anchor="middle" fill="#86efac" font-family="monospace" font-size="10">Phase complete</text>

  <text x="580" y="985" fill="#94a3b8" font-family="system-ui, sans-serif" font-size="12">Position: Phase X of Y, Plan A of B</text>
  <text x="850" y="985" fill="#64748b" font-family="monospace" font-size="12">[============>        ] 60%</text>

  <text x="1100" y="985" fill="#94a3b8" font-family="system-ui, sans-serif" font-size="12">Tracks: Decisions, Blockers, Context</text>

  <!-- Footer -->
  <text x="721" y="1050" text-anchor="middle" fill="#64748b" font-family="system-ui, sans-serif" font-size="13">GSD Workflow | Project → Milestone → Phase → Plan | 18 Commands</text>
</svg>